<svg width="286" height="25" viewBox="0 0 286 25" fill="none" xmlns="http://www.w3.org/2000/svg">
<path d="M4.54547 22.0606H21.2121" stroke="white" stroke-width="2" stroke-linecap="round"/>
<path d="M4.54547 14.0606H21.2121" stroke="white" stroke-width="2" stroke-linecap="round"/>
<path d="M4.54547 6.06061H21.2121" stroke="white" stroke-width="2" stroke-linecap="round"/>
<path d="M51.808 7C52.7893 7 53.632 7.17067 54.336 7.512C55.0507 7.84267 55.5947 8.312 55.968 8.92C56.352 9.528 56.544 10.2373 56.544 11.048C56.544 11.8587 56.352 12.568 55.968 13.176C55.5947 13.784 55.0507 14.2587 54.336 14.6C53.632 14.9307 52.7893 15.096 51.808 15.096H46.56V12.648H51.648C52.224 12.648 52.6773 12.5093 53.008 12.232C53.3387 11.944 53.504 11.5493 53.504 11.048C53.504 10.5467 53.3387 10.1573 53.008 9.88C52.6773 9.592 52.224 9.448 51.648 9.448H46.832L48.192 8.04V19H45.168V7H51.808ZM62.8483 19.256C61.7603 19.256 60.7843 19.0533 59.9203 18.648C59.0669 18.2427 58.3949 17.6773 57.9043 16.952C57.4136 16.2267 57.1683 15.3787 57.1683 14.408C57.1683 13.4587 57.4029 12.6267 57.8723 11.912C58.3416 11.1973 58.9869 10.6373 59.8083 10.232C60.6403 9.82667 61.5789 9.624 62.6243 9.624C63.6909 9.624 64.6083 9.85867 65.3763 10.328C66.1443 10.7973 66.7363 11.4587 67.1523 12.312C67.5683 13.1653 67.7763 14.168 67.7763 15.32H59.5523V13.448H66.1443L65.0723 14.12C65.0403 13.6187 64.9176 13.1973 64.7043 12.856C64.5016 12.504 64.2296 12.2373 63.8883 12.056C63.5469 11.864 63.1416 11.768 62.6723 11.768C62.1603 11.768 61.7176 11.8693 61.3443 12.072C60.9709 12.2747 60.6776 12.5573 60.4643 12.92C60.2616 13.2827 60.1603 13.704 60.1603 14.184C60.1603 14.792 60.2936 15.3093 60.5603 15.736C60.8376 16.1627 61.2323 16.488 61.7443 16.712C62.2669 16.936 62.9016 17.048 63.6483 17.048C64.3309 17.048 65.0136 16.9573 65.6962 16.776C66.3789 16.584 66.9923 16.3173 67.5363 15.976V17.912C66.9176 18.3387 66.2083 18.6693 65.4083 18.904C64.6189 19.1387 63.7656 19.256 62.8483 19.256ZM77.0009 9.88V12.136H70.8569L72.2169 10.776V19H69.2569V9.88H77.0009ZM78.1788 19V9.88H81.0908V17.4L80.4188 17.208L85.5548 9.88H89.3788V19H86.4508V11.304L87.1388 11.512L81.8908 19H78.1788ZM96.6001 19.256C95.4481 19.256 94.4401 19.0533 93.5761 18.648C92.7121 18.2427 92.0401 17.6773 91.5601 16.952C91.0801 16.2267 90.8401 15.3893 90.8401 14.44C90.8401 13.48 91.0801 12.6427 91.5601 11.928C92.0401 11.2027 92.7121 10.6373 93.5761 10.232C94.4508 9.82667 95.4588 9.624 96.6001 9.624C97.7521 9.624 98.7601 9.82667 99.6241 10.232C100.499 10.6373 101.176 11.2027 101.656 11.928C102.136 12.6427 102.376 13.48 102.376 14.44C102.376 15.4 102.136 16.2427 101.656 16.968C101.176 17.6827 100.499 18.2427 99.6241 18.648C98.7601 19.0533 97.7521 19.256 96.6001 19.256ZM96.6001 17.016C97.1868 17.016 97.6828 16.9147 98.0881 16.712C98.5041 16.4987 98.8188 16.2 99.0321 15.816C99.2561 15.432 99.3681 14.9733 99.3681 14.44C99.3681 13.9067 99.2561 13.448 99.0321 13.064C98.8188 12.68 98.5041 12.3867 98.0881 12.184C97.6828 11.9707 97.1868 11.864 96.6001 11.864C96.0348 11.864 95.5441 11.9707 95.1281 12.184C94.7121 12.3867 94.3921 12.68 94.1681 13.064C93.9441 13.448 93.8321 13.9067 93.8321 14.44C93.8321 14.9733 93.9441 15.432 94.1681 15.816C94.3921 16.2 94.7121 16.4987 95.1281 16.712C95.5441 16.9147 96.0348 17.016 96.6001 17.016ZM103.851 9.88H106.811V19H103.851V9.88ZM111.451 9.88H114.411V19H111.451V9.88ZM105.547 13.24H112.587V15.464H105.547V13.24ZM124.623 19L124.223 15.688L124.655 14.44L124.223 13.208L124.623 9.88H127.711L127.151 14.44L127.711 19H124.623ZM125.359 14.44C125.199 15.4107 124.895 16.2587 124.447 16.984C123.999 17.6987 123.434 18.2587 122.751 18.664C122.068 19.0587 121.3 19.256 120.447 19.256C119.551 19.256 118.762 19.0533 118.079 18.648C117.407 18.2427 116.879 17.6827 116.495 16.968C116.111 16.2427 115.919 15.4 115.919 14.44C115.919 13.48 116.111 12.6427 116.495 11.928C116.879 11.2027 117.407 10.6373 118.079 10.232C118.762 9.82667 119.551 9.624 120.447 9.624C121.3 9.624 122.068 9.82667 122.751 10.232C123.434 10.6267 123.999 11.1813 124.447 11.896C124.906 12.6107 125.21 13.4587 125.359 14.44ZM118.927 14.44C118.927 14.9307 119.028 15.368 119.231 15.752C119.434 16.1253 119.711 16.424 120.063 16.648C120.426 16.8613 120.842 16.968 121.311 16.968C121.78 16.968 122.223 16.8613 122.639 16.648C123.066 16.424 123.439 16.1253 123.759 15.752C124.079 15.368 124.319 14.9307 124.479 14.44C124.319 13.9493 124.079 13.5173 123.759 13.144C123.439 12.76 123.066 12.4613 122.639 12.248C122.223 12.024 121.78 11.912 121.311 11.912C120.842 11.912 120.426 12.024 120.063 12.248C119.711 12.4613 119.434 12.76 119.231 13.144C119.028 13.5173 118.927 13.9493 118.927 14.44ZM130.95 9.88H140.614V19H137.654V10.744L139.014 12.104H132.438L133.702 10.968C133.766 11.6187 133.814 12.2107 133.846 12.744C133.878 13.2667 133.894 13.7413 133.894 14.168C133.894 15.928 133.627 17.208 133.094 18.008C132.56 18.7973 131.696 19.192 130.502 19.192C130.171 19.192 129.851 19.1547 129.542 19.08C129.232 19.016 128.934 18.8987 128.646 18.728V16.6C128.838 16.6747 129.024 16.7333 129.206 16.776C129.397 16.808 129.568 16.824 129.718 16.824C130.251 16.824 130.63 16.5893 130.854 16.12C131.088 15.64 131.206 14.8507 131.206 13.752C131.206 13.24 131.184 12.664 131.142 12.024C131.099 11.3733 131.035 10.6587 130.95 9.88ZM142.538 19V9.88H145.482V18.248L144.554 16.888H147.946C148.394 16.888 148.741 16.7813 148.986 16.568C149.231 16.3547 149.354 16.0507 149.354 15.656C149.354 15.2613 149.231 14.9573 148.986 14.744C148.741 14.52 148.394 14.408 147.946 14.408H144.554V12.392H148.426C149.215 12.392 149.903 12.5307 150.49 12.808C151.077 13.0747 151.53 13.4587 151.85 13.96C152.181 14.4507 152.346 15.0267 152.346 15.688C152.346 16.3493 152.181 16.9307 151.85 17.432C151.53 17.9333 151.077 18.3227 150.49 18.6C149.914 18.8667 149.237 19 148.458 19H142.538ZM153.601 9.88H156.561V19H153.601V9.88ZM161.201 9.88H164.161V19H161.201V9.88ZM155.297 13.24H162.337V15.464H155.297V13.24ZM176.757 9.88H179.733V19H176.757V9.88ZM166.085 19V9.88H169.029V18.248L168.101 16.888H171.493C171.941 16.888 172.288 16.7813 172.533 16.568C172.778 16.3547 172.901 16.0507 172.901 15.656C172.901 15.2613 172.778 14.9573 172.533 14.744C172.288 14.52 171.941 14.408 171.493 14.408H168.101V12.392H171.973C172.762 12.392 173.45 12.5307 174.037 12.808C174.624 13.0747 175.077 13.4587 175.397 13.96C175.728 14.4507 175.893 15.0267 175.893 15.688C175.893 16.3493 175.728 16.9307 175.397 17.432C175.077 17.9333 174.624 18.3227 174.037 18.6C173.461 18.8667 172.784 19 172.005 19H166.085ZM186.864 19.256C185.776 19.256 184.8 19.0533 183.936 18.648C183.083 18.2427 182.411 17.6773 181.92 16.952C181.429 16.2267 181.184 15.3787 181.184 14.408C181.184 13.4587 181.419 12.6267 181.888 11.912C182.357 11.1973 183.003 10.6373 183.824 10.232C184.656 9.82667 185.595 9.624 186.64 9.624C187.707 9.624 188.624 9.85867 189.392 10.328C190.16 10.7973 190.752 11.4587 191.168 12.312C191.584 13.1653 191.792 14.168 191.792 15.32H183.568V13.448H190.16L189.088 14.12C189.056 13.6187 188.933 13.1973 188.72 12.856C188.517 12.504 188.245 12.2373 187.904 12.056C187.563 11.864 187.157 11.768 186.688 11.768C186.176 11.768 185.733 11.8693 185.36 12.072C184.987 12.2747 184.693 12.5573 184.48 12.92C184.277 13.2827 184.176 13.704 184.176 14.184C184.176 14.792 184.309 15.3093 184.576 15.736C184.853 16.1627 185.248 16.488 185.76 16.712C186.283 16.936 186.917 17.048 187.664 17.048C188.347 17.048 189.029 16.9573 189.712 16.776C190.395 16.584 191.008 16.3173 191.552 15.976V17.912C190.933 18.3387 190.224 18.6693 189.424 18.904C188.635 19.1387 187.781 19.256 186.864 19.256ZM207.8 9.88V19H204.824V10.744L206.184 12.104H198.904L200.264 10.744V19H197.304V9.88H207.8ZM215.038 19.256C213.886 19.256 212.878 19.0533 212.014 18.648C211.15 18.2427 210.478 17.6773 209.998 16.952C209.518 16.2267 209.278 15.3893 209.278 14.44C209.278 13.48 209.518 12.6427 209.998 11.928C210.478 11.2027 211.15 10.6373 212.014 10.232C212.888 9.82667 213.896 9.624 215.038 9.624C216.19 9.624 217.198 9.82667 218.062 10.232C218.936 10.6373 219.614 11.2027 220.094 11.928C220.574 12.6427 220.814 13.48 220.814 14.44C220.814 15.4 220.574 16.2427 220.094 16.968C219.614 17.6827 218.936 18.2427 218.062 18.648C217.198 19.0533 216.19 19.256 215.038 19.256ZM215.038 17.016C215.624 17.016 216.12 16.9147 216.526 16.712C216.942 16.4987 217.256 16.2 217.47 15.816C217.694 15.432 217.806 14.9733 217.806 14.44C217.806 13.9067 217.694 13.448 217.47 13.064C217.256 12.68 216.942 12.3867 216.526 12.184C216.12 11.9707 215.624 11.864 215.038 11.864C214.472 11.864 213.982 11.9707 213.566 12.184C213.15 12.3867 212.83 12.68 212.606 13.064C212.382 13.448 212.27 13.9067 212.27 14.44C212.27 14.9733 212.382 15.432 212.606 15.816C212.83 16.2 213.15 16.4987 213.566 16.712C213.982 16.9147 214.472 17.016 215.038 17.016ZM222.288 9.88H225.248V12.632L225.136 13.016V15.384L225.248 16.088V21.64H222.288V9.88ZM224.272 14.44C224.432 13.4587 224.736 12.6107 225.184 11.896C225.632 11.1813 226.197 10.6267 226.88 10.232C227.573 9.82667 228.341 9.624 229.184 9.624C230.08 9.624 230.864 9.82667 231.536 10.232C232.219 10.6373 232.752 11.2027 233.136 11.928C233.52 12.6427 233.712 13.48 233.712 14.44C233.712 15.4 233.52 16.2427 233.136 16.968C232.752 17.6827 232.219 18.2427 231.536 18.648C230.864 19.0533 230.08 19.256 229.184 19.256C228.331 19.256 227.563 19.0587 226.88 18.664C226.208 18.2587 225.648 17.6987 225.2 16.984C224.752 16.2587 224.443 15.4107 224.272 14.44ZM230.704 14.44C230.704 13.9493 230.603 13.5173 230.4 13.144C230.197 12.76 229.915 12.4613 229.552 12.248C229.2 12.024 228.795 11.912 228.336 11.912C227.867 11.912 227.419 12.024 226.992 12.248C226.565 12.4613 226.192 12.76 225.872 13.144C225.563 13.5173 225.323 13.9493 225.152 14.44C225.323 14.9307 225.563 15.368 225.872 15.752C226.192 16.1253 226.565 16.424 226.992 16.648C227.419 16.8613 227.867 16.968 228.336 16.968C228.795 16.968 229.2 16.8613 229.552 16.648C229.915 16.424 230.197 16.1253 230.4 15.752C230.603 15.368 230.704 14.9307 230.704 14.44ZM237.713 10.904H240.689V19H237.713V10.904ZM234.177 9.88H244.241V12.136H234.177V9.88ZM253.42 19L253.02 15.688L253.452 14.44L253.02 13.208L253.42 9.88H256.508L255.948 14.44L256.508 19H253.42ZM254.156 14.44C253.996 15.4107 253.692 16.2587 253.244 16.984C252.796 17.6987 252.231 18.2587 251.548 18.664C250.865 19.0587 250.097 19.256 249.244 19.256C248.348 19.256 247.559 19.0533 246.876 18.648C246.204 18.2427 245.676 17.6827 245.292 16.968C244.908 16.2427 244.716 15.4 244.716 14.44C244.716 13.48 244.908 12.6427 245.292 11.928C245.676 11.2027 246.204 10.6373 246.876 10.232C247.559 9.82667 248.348 9.624 249.244 9.624C250.097 9.624 250.865 9.82667 251.548 10.232C252.231 10.6267 252.796 11.1813 253.244 11.896C253.703 12.6107 254.007 13.4587 254.156 14.44ZM247.724 14.44C247.724 14.9307 247.825 15.368 248.028 15.752C248.231 16.1253 248.508 16.424 248.86 16.648C249.223 16.8613 249.639 16.968 250.108 16.968C250.577 16.968 251.02 16.8613 251.436 16.648C251.863 16.424 252.236 16.1253 252.556 15.752C252.876 15.368 253.116 14.9307 253.276 14.44C253.116 13.9493 252.876 13.5173 252.556 13.144C252.236 12.76 251.863 12.4613 251.436 12.248C251.02 12.024 250.577 11.912 250.108 11.912C249.639 11.912 249.223 12.024 248.86 12.248C248.508 12.4613 248.231 12.76 248.028 13.144C247.825 13.5173 247.724 13.9493 247.724 14.44ZM259.746 9.88H269.41V19H266.45V10.744L267.81 12.104H261.234L262.498 10.968C262.562 11.6187 262.61 12.2107 262.642 12.744C262.674 13.2667 262.69 13.7413 262.69 14.168C262.69 15.928 262.424 17.208 261.89 18.008C261.357 18.7973 260.493 19.192 259.298 19.192C258.968 19.192 258.648 19.1547 258.338 19.08C258.029 19.016 257.73 18.8987 257.442 18.728V16.6C257.634 16.6747 257.821 16.7333 258.002 16.776C258.194 16.808 258.365 16.824 258.514 16.824C259.048 16.824 259.426 16.5893 259.65 16.12C259.885 15.64 260.002 14.8507 260.002 13.752C260.002 13.24 259.981 12.664 259.938 12.024C259.896 11.3733 259.832 10.6587 259.746 9.88ZM282.007 9.88H284.983V19H282.007V9.88ZM271.335 19V9.88H274.279V18.248L273.351 16.888H276.743C277.191 16.888 277.538 16.7813 277.783 16.568C278.028 16.3547 278.151 16.0507 278.151 15.656C278.151 15.2613 278.028 14.9573 277.783 14.744C277.538 14.52 277.191 14.408 276.743 14.408H273.351V12.392H277.223C278.012 12.392 278.7 12.5307 279.287 12.808C279.874 13.0747 280.327 13.4587 280.647 13.96C280.978 14.4507 281.143 15.0267 281.143 15.688C281.143 16.3493 280.978 16.9307 280.647 17.432C280.327 17.9333 279.874 18.3227 279.287 18.6C278.711 18.8667 278.034 19 277.255 19H271.335Z" fill="white"/>
</svg>
