<svg width="25" height="25" viewBox="0 0 25 25" fill="none" xmlns="http://www.w3.org/2000/svg">
<g clip-path="url(#clip0_56_17)">
<path d="M13.0016 16.1477C12.6961 16.4523 12.6961 16.9469 13.0016 17.2523C13.1539 17.4047 13.3539 17.4812 13.5539 17.4812C13.7539 17.4812 13.9539 17.4047 14.1062 17.2523L18.7211 12.5156L14.1062 7.77891C13.8016 7.47422 13.307 7.47422 13.0016 7.77891C12.6961 8.08359 12.6961 8.57891 13.0016 8.88359L15.8273 11.7094H0.777344C0.346094 11.7094 -0.00390625 12.0594 -0.00390625 12.4906C-0.00390625 12.9219 0.346094 13.2719 0.777344 13.2719H15.8758L13.0016 16.1477ZM23.4414 0H9.37891C8.51563 0 7.81562 0.699219 7.81562 1.5625V8.59375H9.38906V2.51563C9.38906 1.99375 9.8125 1.57031 10.3344 1.57031H22.4609C22.9836 1.57031 23.4062 1.99375 23.4062 2.51563L23.4312 22.4937C23.4312 23.0156 23.0086 23.4391 22.4859 23.4391H10.3352C9.81328 23.4391 9.38984 23.0156 9.38984 22.4937V16.3813L7.81641 16.3836V23.4383C7.81641 24.3016 8.51641 25.0008 9.37969 25.0008H23.4422C24.3055 25.0008 25.0047 24.3016 25.0047 23.4383V1.56328C25.0039 0.7 24.3047 0.00078125 23.4422 0.00078125L23.4414 0Z" fill="white"/>
</g>
<defs>
<clipPath id="clip0_56_17">
<rect width="25" height="25" fill="white"/>
</clipPath>
</defs>
</svg>
