<svg width="25" height="25" viewBox="0 0 25 25" fill="none" xmlns="http://www.w3.org/2000/svg">
<path d="M23.3333 17.4479H22.3958V13.9989C22.3958 12.5067 20.9703 11.1979 19.3453 11.1979H13.0208V8.07289H14.4792C15.399 8.07118 16.1441 7.32597 16.1458 6.40624V2.96874C16.1441 2.04897 15.3989 1.3038 14.4792 1.30209H10.5208C9.60107 1.3038 8.85591 2.04902 8.8542 2.96874V6.40624C8.85591 7.32602 9.60112 8.07118 10.5208 8.07289H11.9792V11.1979H5.65469C4.02969 11.1979 2.60415 12.5067 2.60415 13.9989V17.4479H1.66665C0.746924 17.4497 0.00170898 18.1948 0 19.1146V22.0312C0.00170898 22.951 0.746924 23.6962 1.66665 23.6979H4.5833C5.50308 23.6962 6.24824 22.951 6.24995 22.0312V19.1146C6.24824 18.1948 5.50303 17.4497 4.5833 17.4479H3.6458V13.999C3.6458 12.9917 4.7062 12.2396 5.65464 12.2396H11.9791V17.4479H11.0416C10.1218 17.4497 9.37666 18.1949 9.37495 19.1146V22.0312C9.37666 22.951 10.1219 23.6962 11.0416 23.6979H13.9583C14.878 23.6962 15.6232 22.951 15.6249 22.0312V19.1146C15.6232 18.1948 14.878 17.4497 13.9583 17.4479H13.0208V12.2396H19.3452C20.2937 12.2396 21.3541 12.9917 21.3541 13.999V17.4479H20.4166C19.4968 17.4497 18.7516 18.1949 18.7499 19.1146V22.0312C18.7516 22.951 19.4968 23.6962 20.4166 23.6979H23.3332C24.253 23.6962 24.9981 22.951 24.9999 22.0312V19.1146C24.9983 18.1948 24.2531 17.4497 23.3333 17.4479ZM4.58335 18.4896C4.92852 18.4896 5.20835 18.7694 5.20835 19.1146V22.0312C5.20835 22.3764 4.92852 22.6562 4.58335 22.6562H1.66665C1.32148 22.6562 1.04165 22.3764 1.04165 22.0312V19.1146C1.04165 18.7694 1.32148 18.4896 1.66665 18.4896H4.58335ZM13.9583 18.4896C14.3035 18.4896 14.5833 18.7694 14.5833 19.1146V22.0312C14.5833 22.3764 14.3035 22.6562 13.9583 22.6562H11.0417C10.6965 22.6562 10.4167 22.3764 10.4167 22.0312V19.1146C10.4167 18.7694 10.6965 18.4896 11.0417 18.4896H13.9583ZM10.5208 7.03124C10.1757 7.03124 9.89585 6.75141 9.89585 6.40624V2.96874C9.89585 2.62358 10.1757 2.34374 10.5208 2.34374H14.4792C14.8244 2.34374 15.1042 2.62358 15.1042 2.96874V6.40624C15.1042 6.75141 14.8244 7.03124 14.4792 7.03124H10.5208ZM23.9583 22.0312C23.9583 22.3764 23.6785 22.6562 23.3333 22.6562H20.4167C20.0715 22.6562 19.7917 22.3764 19.7917 22.0312V19.1146C19.7917 18.7694 20.0715 18.4896 20.4167 18.4896H23.3333C23.6785 18.4896 23.9583 18.7694 23.9583 19.1146V22.0312Z" fill="white"/>
</svg>
