<svg width="25" height="25" viewBox="0 0 25 25" fill="none" xmlns="http://www.w3.org/2000/svg">
<path d="M22.717 10.0472C22.3963 10.0472 22.151 10.3113 22.151 10.6132V20.8019C22.151 21.4434 21.6416 21.9528 21.0001 21.9528H3.75477C3.11326 21.9528 2.60382 21.4434 2.60382 20.8019V4.17926C2.60382 3.53775 3.11326 3.02832 3.75477 3.02832H14.8491C15.1699 3.02832 15.4151 2.76416 15.4151 2.46228C15.4151 2.14152 15.151 1.89624 14.8491 1.89624H3.64156C2.43401 1.89624 1.45288 2.87737 1.45288 4.08492V20.9528C1.45288 22.1604 2.43401 23.1415 3.64156 23.1415H21.1133C22.3208 23.1415 23.3019 22.1604 23.3019 20.9528V10.6132C23.3019 10.3113 23.0378 10.0472 22.717 10.0472Z" fill="white"/>
<path d="M22.8302 3.99058L21.7924 2.95284C21.0754 2.23586 19.9434 2.16039 19.3018 2.82077L8.37732 13.7453L12.0377 17.4057L22.9622 6.48115C23.6226 5.83964 23.566 4.70756 22.8302 3.99058ZM20.0754 7.7453L11.9622 15.8585L9.92449 13.8396L18.0754 5.68869L20.0754 7.7453ZM22.1509 5.66983L20.9434 6.87737L18.9245 4.83964L20.1132 3.65096C20.3585 3.40568 20.7924 3.42454 21.0566 3.70756L22.0943 4.7453C22.3773 4.99058 22.3962 5.42454 22.1509 5.66983ZM8.37732 13.783L7.24525 17.8962C7.18864 18.0849 7.24524 18.2736 7.37732 18.4057C7.5094 18.5378 7.69807 18.5944 7.88675 18.5378L12 17.4057L11.1509 16.5566L8.49053 17.2925L9.22638 14.6132L8.37732 13.783Z" fill="white"/>
</svg>
