<svg width="49" height="49" viewBox="0 0 49 49" fill="none" xmlns="http://www.w3.org/2000/svg">
<path d="M42.0679 38.8556L35.267 32.0747C37.4612 29.2792 38.6518 25.8272 38.6474 22.2734C38.6474 19.1085 37.7089 16.0146 35.9506 13.3831C34.1922 10.7515 31.693 8.7005 28.769 7.48934C25.845 6.27817 22.6275 5.96128 19.5234 6.57872C16.4193 7.19617 13.568 8.72023 11.33 10.9582C9.09205 13.1961 7.568 16.0474 6.95055 19.1515C6.3331 22.2556 6.65 25.4731 7.86116 28.3972C9.07233 31.3212 11.1234 33.8204 13.7549 35.5787C16.3865 37.337 19.4803 38.2755 22.6453 38.2755C26.199 38.28 29.6511 37.0894 32.4466 34.8951L39.2275 41.696C39.4134 41.8835 39.6347 42.0323 39.8784 42.1339C40.1222 42.2354 40.3836 42.2877 40.6477 42.2877C40.9117 42.2877 41.1732 42.2354 41.4169 42.1339C41.6607 42.0323 41.8819 41.8835 42.0679 41.696C42.2554 41.5101 42.4042 41.2888 42.5057 41.0451C42.6073 40.8013 42.6595 40.5399 42.6595 40.2758C42.6595 40.0118 42.6073 39.7503 42.5057 39.5066C42.4042 39.2628 42.2554 39.0416 42.0679 38.8556ZM10.6436 22.2734C10.6436 19.8997 11.3475 17.5793 12.6663 15.6057C13.985 13.632 15.8594 12.0937 18.0524 11.1854C20.2455 10.277 22.6586 10.0393 24.9867 10.5024C27.3147 10.9655 29.4532 12.1085 31.1317 13.787C32.8101 15.4654 33.9532 17.6039 34.4163 19.932C34.8794 22.2601 34.6417 24.6732 33.7333 26.8662C32.8249 29.0592 31.2867 30.9336 29.313 32.2524C27.3393 33.5711 25.019 34.275 22.6453 34.275C19.4622 34.275 16.4096 33.0106 14.1588 30.7598C11.9081 28.5091 10.6436 25.4564 10.6436 22.2734Z" fill="#0055A4"/>
</svg>
