<svg width="25" height="25" viewBox="0 0 25 25" fill="none" xmlns="http://www.w3.org/2000/svg">
<path d="M3.54154 3.54167L3.17149 3.1751L3.17588 3.17078L3.54154 3.54167ZM3.54154 21.4583L3.17498 21.8283L3.17066 21.824L3.54154 21.4583ZM21.4582 21.4583L21.8283 21.8249L21.8239 21.8293L21.4582 21.4583ZM21.4582 3.54167L21.8247 3.17161L21.8291 3.176L21.4582 3.54167ZM5.5971 8.42361L5.07637 8.43429C5.0735 8.29433 5.12709 8.15911 5.22505 8.05912C5.32302 7.95912 5.45711 7.90278 5.5971 7.90278V8.42361ZM13.4443 17.0903H13.9651C13.9651 17.3779 13.7319 17.6111 13.4443 17.6111V17.0903ZM13.4443 13.993H12.9235C12.9235 13.8459 12.9857 13.7057 13.0947 13.607C13.2038 13.5082 13.3495 13.4602 13.496 13.4748L13.4443 13.993ZM17.0346 17.0903V17.6111C16.8082 17.6111 16.6078 17.4649 16.5387 17.2493L17.0346 17.0903ZM19.4998 17.0903L20.0026 16.9544C20.0449 17.1108 20.012 17.2781 19.9135 17.4069C19.8148 17.5356 19.662 17.6111 19.4998 17.6111V17.0903ZM15.9373 12.743L15.7053 13.2094C15.5356 13.1248 15.425 12.9547 15.417 12.7652C15.4089 12.5757 15.5045 12.3969 15.6665 12.2982L15.9373 12.743ZM18.979 8.41667V7.89583C19.1355 7.89583 19.2836 7.96615 19.3825 8.08734C19.4815 8.20853 19.5207 8.36777 19.4893 8.52103L18.979 8.41667ZM16.743 8.41667L16.2417 8.27519C16.305 8.05079 16.5097 7.89583 16.743 7.89583V8.41667ZM13.4443 11.8472L13.4995 12.3651C13.3526 12.3808 13.206 12.3333 13.0961 12.2346C12.9862 12.1357 12.9235 11.995 12.9235 11.8472H13.4443ZM13.4443 8.42361V7.90278C13.7319 7.90278 13.9651 8.13597 13.9651 8.42361H13.4443ZM11.2013 8.42361H10.6805C10.6805 8.13597 10.9136 7.90278 11.2013 7.90278V8.42361ZM11.2013 14.4236H11.7221C11.7221 14.584 11.6482 14.7354 11.5218 14.8342C11.3954 14.9328 11.2306 14.9678 11.0749 14.9289L11.2013 14.4236ZM7.98598 8.42361V7.90278C8.26973 7.90278 8.50126 8.12991 8.50672 8.41359L7.98598 8.42361ZM1.56238 12.0833C1.56238 9.74034 1.56128 7.93182 1.74927 6.52726C1.93926 5.10773 2.33078 4.02382 3.17149 3.1751L3.91157 3.9082C3.29395 4.5317 2.95633 5.36102 2.78173 6.66545C2.60514 7.98484 2.60404 9.71104 2.60404 12.0833H1.56238ZM1.56238 12.9167V12.0833H2.60404V12.9167H1.56238ZM3.17066 21.824C2.33076 20.9721 1.93927 19.8872 1.74927 18.4675C1.56128 17.063 1.56238 15.2562 1.56238 12.9167H2.60404C2.60404 15.2854 2.60514 17.0099 2.78173 18.3294C2.95631 19.6336 3.29399 20.4654 3.91243 21.0927L3.17066 21.824ZM12.0832 23.4375C9.74022 23.4375 7.9317 23.4386 6.52714 23.2506C5.1076 23.0606 4.0237 22.6691 3.17498 21.8283L3.90808 21.0883C4.53158 21.7059 5.3609 22.0435 6.66533 22.2181C7.98472 22.3947 9.71092 22.3958 12.0832 22.3958V23.4375ZM12.9165 23.4375H12.0832V22.3958H12.9165V23.4375ZM21.8239 21.8293C20.972 22.6692 19.887 23.0606 18.4674 23.2506C17.0629 23.4386 15.2561 23.4375 12.9165 23.4375V22.3958C15.2854 22.3958 17.0098 22.3947 18.3292 22.2181C19.6336 22.0435 20.4653 21.7058 21.0925 21.0874L21.8239 21.8293ZM23.4373 12.9167C23.4373 15.2597 23.4385 17.0682 23.2505 18.4727C23.0605 19.8923 22.669 20.9761 21.8283 21.8249L21.0882 21.0918C21.7058 20.4683 22.0435 19.639 22.2181 18.3346C22.3946 17.0151 22.3957 15.289 22.3957 12.9167H23.4373ZM23.4373 12.0833V12.9167H22.3957V12.0833H23.4373ZM21.8291 3.176C22.669 4.0279 23.0605 5.11285 23.2505 6.53247C23.4385 7.93702 23.4373 9.74379 23.4373 12.0833H22.3957C22.3957 9.71454 22.3946 7.99006 22.2181 6.67066C22.0435 5.36631 21.7058 4.5346 21.0873 3.90733L21.8291 3.176ZM12.9165 1.5625C15.2595 1.5625 17.0681 1.56141 18.4727 1.7494C19.8921 1.93939 20.976 2.3309 21.8247 3.17161L21.0917 3.91169C20.4682 3.29407 19.6389 2.95645 18.3344 2.78185C17.015 2.60526 15.2888 2.60417 12.9165 2.60417V1.5625ZM12.0832 1.5625H12.9165V2.60417H12.0832V1.5625ZM3.17588 3.17078C4.02777 2.33089 5.11273 1.93941 6.53235 1.7494C7.9369 1.56141 9.74367 1.5625 12.0832 1.5625V2.60417C9.71442 2.60417 7.98993 2.60526 6.67053 2.78185C5.36619 2.95643 4.53448 3.29411 3.90721 3.91255L3.17588 3.17078ZM13.1665 17.6111C10.6642 17.6111 8.64625 16.7498 7.24783 15.1283C5.85976 13.519 5.13353 11.2207 5.07637 8.43429L6.11783 8.41293C6.17177 11.0431 6.85525 13.0782 8.03664 14.448C9.20766 15.8057 10.9189 16.5695 13.1665 16.5695V17.6111ZM13.1735 17.6111H13.1665V16.5695H13.1735V17.6111ZM13.4443 17.6111H13.1735V16.5695H13.4443V17.6111ZM13.9651 13.993V17.0903H12.9235V13.993H13.9651ZM16.5387 17.2493C16.0616 15.7617 14.8911 14.6605 13.3926 14.5114L13.496 13.4748C15.4836 13.6728 16.952 15.1272 17.5306 16.9312L16.5387 17.2493ZM19.4998 17.6111H17.0346V16.5695H19.4998V17.6111ZM18.5875 14.2046C19.2483 15.0108 19.7306 15.948 20.0026 16.9544L18.9971 17.2263C18.7635 16.3621 18.3493 15.5572 17.7818 14.8649L18.5875 14.2046ZM16.1694 12.2768C17.1026 12.7412 17.9268 13.3983 18.5875 14.2046L17.7818 14.8649C17.2144 14.1725 16.5067 13.6082 15.7053 13.2094L16.1694 12.2768ZM18.3353 11.1965C17.7707 11.9995 17.0466 12.6774 16.2083 13.1879L15.6665 12.2982C16.3825 11.8622 17.0009 11.2831 17.4831 10.5974L18.3353 11.1965ZM19.4893 8.52103C19.2926 9.48269 18.8997 10.3935 18.3353 11.1965L17.4831 10.5974C17.9653 9.91153 18.3008 9.13366 18.4688 8.31231L19.4893 8.52103ZM16.743 7.89583H18.979V8.9375H16.743V7.89583ZM13.3891 11.3294C13.9063 11.2742 14.5026 10.9371 15.0467 10.3644C15.5839 9.79887 16.0225 9.05145 16.2417 8.27519L17.2442 8.55815C16.9771 9.5041 16.4506 10.399 15.802 11.0818C15.1603 11.7573 14.3505 12.2744 13.4995 12.3651L13.3891 11.3294ZM13.9651 8.42361V11.8472H12.9235V8.42361H13.9651ZM11.2013 7.90278H13.4443V8.94445H11.2013V7.90278ZM10.6805 14.4236V8.42361H11.7221V14.4236H10.6805ZM8.50672 8.41359C8.58035 12.2423 10.2451 13.6477 11.3275 13.9183L11.0749 14.9289C9.37966 14.5051 7.5444 12.5494 7.46525 8.43362L8.50672 8.41359ZM5.5971 7.90278H7.98598V8.94445H5.5971V7.90278Z" fill="white"/>
</svg>
